<?xml version="1.0" standalone="no"?>
 <!DOCTYPE svg PUBLIC "-//W3C//DTD SVG 1.1//EN" 
 "http://www.w3.org/Graphics/SVG/1.1/DTD/svg11.dtd"> 
<svg
  xmlns:svg="http://www.w3.org/2000/svg"
  xmlns="http://www.w3.org/2000/svg"
  xmlns:xlink="http://www.w3.org/1999/xlink"
  version="1.1"
  width="297.0022mm" height="210.0072mm" viewBox="0.0000 0.0000 297.0022 210.0072">
<title>SVG Image created as hakkaa-Edge_Cuts.svg date 2026/04/15 17:16:20 </title>
  <desc>Image generated by PCBNEW </desc>
<g style="fill:#000000; fill-opacity:1.0000;stroke:#000000; stroke-opacity:1.0000;
stroke-linecap:round; stroke-linejoin:round;"
 transform="translate(0 0) scale(1 1)">
<path style="fill:none; 
stroke:#000000; stroke-width:0.0265; stroke-opacity:1; 
stroke-linecap:round; stroke-linejoin:round;fill:none"
d="M 170.5717,59.1710
170.7683,59.1908
170.8777,59.2087
170.9862,59.2316
171.0934,59.2592
171.1994,59.2916
171.3038,59.3286
171.4065,59.3700
171.5074,59.4157
171.6062,59.4657
171.7029,59.5199
171.7973,59.5780
171.8891,59.6400
171.9783,59.7058
172.0646,59.7752
172.1479,59.8481
172.2280,59.9245
172.3049,60.0042
172.3601,60.0658
172.4133,60.1292
172.4644,60.1944
172.5134,60.2612
172.5602,60.3297
172.6047,60.3996
172.6468,60.4711
172.6866,60.5438
172.7238,60.6179
172.7585,60.6932
172.7907,60.7697
172.8201,60.8472
172.8468,60.9257
172.8707,61.0051
172.8918,61.0854
172.9099,61.1664
172.9847,61.1293
173.0600,61.0938
173.2120,61.0269
173.3652,60.9642
173.5190,60.9040
173.8266,60.7852
173.9791,60.7234
174.1301,60.6579
174.2026,60.5617
174.2768,60.4704
174.3523,60.3840
174.4291,60.3022
174.5070,60.2251
174.5860,60.1523
174.6658,60.0839
174.7465,60.0197
174.8278,59.9596
174.9096,59.9035
175.0744,59.8025
175.2398,59.7159
175.4049,59.6426
175.5685,59.5817
175.7299,59.5321
175.8878,59.4928
176.0414,59.4629
176.1897,59.4414
176.3316,59.4273
176.4662,59.4195
176.5924,59.4172
176.7163,59.4243
176.8375,59.4372
176.9558,59.4556
177.0714,59.4792
177.1842,59.5080
177.2942,59.5416
177.4014,59.5798
177.5058,59.6225
177.6075,59.6694
177.7063,59.7202
177.8023,59.7749
177.8956,59.8330
177.9860,59.8946
178.0737,59.9592
178.2405,60.0970
178.3960,60.2447
178.5402,60.4006
178.6731,60.5628
178.7947,60.7298
178.9048,60.8997
179.0036,61.0708
179.0909,61.2414
179.1667,61.4098
179.2610,61.4129
179.3815,61.4223
179.5232,61.4384
179.6809,61.4616
179.8493,61.4922
180.0235,61.5306
180.1110,61.5528
180.1981,61.5771
180.2840,61.6035
180.3681,61.6320
180.4302,61.6551
180.4919,61.6794
180.5531,61.7050
180.6138,61.7319
180.6740,61.7600
180.7335,61.7894
180.7924,61.8201
180.8506,61.8521
180.9080,61.8854
180.9646,61.9201
181.0203,61.9562
181.0751,61.9936
181.1290,62.0323
181.1819,62.0725
181.2337,62.1141
181.2844,62.1570
181.3256,62.1950
181.3659,62.2337
181.4054,62.2732
181.4440,62.3134
181.4818,62.3544
181.5189,62.3960
181.5910,62.4811
181.6603,62.5685
181.7272,62.6578
181.7919,62.7488
181.8547,62.8412
181.9203,62.8643
181.9855,62.8885
182.0504,62.9139
182.1148,62.9404
182.1786,62.9680
182.2419,62.9968
182.3046,63.0267
182.3665,63.0578
182.4023,63.0766
182.4378,63.0961
182.4729,63.1162
182.5076,63.1369
182.5420,63.1581
182.5760,63.1800
182.6430,63.2253
182.7084,63.2728
182.7724,63.3221
182.8349,63.3733
182.8959,63.4262
182.9652,63.4897
183.0334,63.5542
183.1005,63.6200
183.1662,63.6871
183.2302,63.7557
183.2924,63.8259
183.3526,63.8979
183.3818,63.9347
183.4105,63.9719
183.4545,64.0311
183.4967,64.0915
183.5374,64.1529
183.5765,64.2154
183.6139,64.2788
183.6498,64.3432
183.6840,64.4085
183.7167,64.4746
183.7478,64.5415
183.7774,64.6092
183.8054,64.6775
183.8319,64.7464
183.8569,64.8160
183.8804,64.8861
183.9024,64.9567
183.9229,65.0277
184.0265,65.1050
184.1273,65.1897
184.2252,65.2811
184.3203,65.3789
184.4126,65.4826
184.5021,65.5916
184.5888,65.7055
184.6728,65.8238
184.7539,65.9461
184.8323,66.0718
184.9080,66.2004
184.9809,66.3316
185.0511,66.4648
185.1185,66.5994
185.2454,66.8715
185.3035,67.0152
185.3569,67.1594
185.4058,67.3041
185.4500,67.4493
185.4898,67.5951
185.5251,67.7415
185.5560,67.8886
185.5826,68.0363
185.6049,68.1848
185.6230,68.3341
185.6370,68.4842
185.6469,68.6351
185.6527,68.7869
185.6546,68.9397
185.6525,69.0934
185.6465,69.2481
185.6425,70.8662
185.6322,72.4851
185.6105,77.6579
185.6070,78.8056
185.6066,79.3795
185.6105,79.9534
185.6126,80.5192
185.6164,80.7596
185.6228,80.9805
185.6328,81.1887
185.6469,81.3907
185.6659,81.5934
185.6906,81.8034
185.7251,82.0075
185.7718,82.2172
185.8289,82.4309
185.8947,82.6471
185.9675,82.8642
186.0454,83.0808
186.2099,83.5063
186.5245,84.2835
186.6467,84.6109
186.6929,84.7540
186.7270,84.8812
186.7414,84.9470
186.7532,85.0132
186.7627,85.0798
186.7704,85.1467
186.7765,85.2138
186.7814,85.2810
186.7891,85.4156
186.8158,88.6513
186.8231,90.2692
186.8195,91.8870
186.9153,92.0086
187.0458,92.1829
187.2013,92.4036
187.3723,92.6647
187.4606,92.8085
187.5491,92.9601
187.6367,93.1186
187.7221,93.2834
187.8042,93.4537
187.8818,93.6287
187.9535,93.8076
188.0184,93.9897
188.0669,94.1871
188.1098,94.3857
188.1468,94.5855
188.1774,94.7862
188.2011,94.9877
188.2174,95.1899
188.2259,95.3927
188.2262,95.5958
188.2236,95.6903
188.2190,95.7848
188.2124,95.8793
188.2038,95.9736
188.1931,96.0677
188.1803,96.1615
188.1654,96.2550
188.1482,96.3481
188.1288,96.4407
188.1070,96.5328
188.0830,96.6243
188.0566,96.7151
188.0277,96.8052
187.9964,96.8944
187.9626,96.9828
187.9263,97.0702
187.9021,97.1265
187.8766,97.1823
187.8497,97.2375
187.8217,97.2920
187.7923,97.3458
187.7618,97.3989
187.7301,97.4514
187.6972,97.5031
187.6631,97.5541
187.6279,97.6043
187.5917,97.6537
187.5543,97.7024
187.5160,97.7502
187.4766,97.7972
187.4362,97.8434
187.3949,97.8887
187.3457,97.9397
187.2956,97.9897
187.2446,98.0387
187.1928,98.0868
187.0866,98.1802
186.9773,98.2700
186.8652,98.3562
186.7505,98.4390
186.6335,98.5184
186.5143,98.5946
186.5543,98.6105
186.5941,98.6268
186.6337,98.6436
186.6730,98.6610
186.7121,98.6791
186.7509,98.6980
186.7895,98.7177
186.8277,98.7383
186.8709,98.7611
186.9135,98.7848
186.9557,98.8093
186.9974,98.8345
187.0387,98.8606
187.0794,98.8875
187.1197,98.9151
187.1595,98.9434
187.1988,98.9724
187.2376,99.0020
187.2759,99.0324
187.3137,99.0633
187.3878,99.1271
187.4599,99.1930
187.6586,99.3922
187.8328,99.5930
187.9840,99.7994
188.1135,100.0155
188.2230,100.2450
188.3138,100.4920
188.3875,100.7605
188.4455,101.0542
188.4893,101.3773
188.5203,101.7336
188.5401,102.1271
188.5501,102.5616
188.5465,103.5700
188.5216,104.7901
188.5131,105.0752
188.5069,105.2177
188.4985,105.3600
188.4872,105.5019
188.4725,105.6434
188.4537,105.7843
188.4301,105.9244
188.3849,106.1066
188.3304,106.2826
188.2671,106.4526
188.1954,106.6170
188.1157,106.7761
188.0285,106.9303
187.9342,107.0798
187.8332,107.2249
187.7260,107.3660
187.6130,107.5035
187.4945,107.6375
187.3711,107.7685
187.2432,107.8968
187.1111,108.0227
186.9754,108.1465
186.8364,108.2684
186.8811,108.3718
186.9229,108.4764
186.9619,108.5822
186.9980,108.6890
187.0314,108.7968
187.0622,108.9054
187.0904,109.0147
187.1160,109.1247
187.1333,109.2061
187.1484,109.2883
187.1614,109.3712
187.1723,109.4545
187.1814,109.5377
187.1887,109.6208
187.1985,109.7851
187.2026,109.9452
187.2020,110.0988
187.1977,110.2436
187.1906,110.3774
187.1845,110.4584
187.1764,110.5393
187.1665,110.6201
187.1546,110.7005
187.1407,110.7807
187.1248,110.8604
187.1069,110.9398
187.0870,111.0186
187.0650,111.0969
187.0409,111.1745
187.0148,111.2515
186.9864,111.3277
186.9560,111.4031
186.9233,111.4776
186.8885,111.5512
186.8514,111.6238
186.8271,111.6678
186.8020,111.7114
186.7761,111.7546
186.7496,111.7973
186.6943,111.8814
186.6366,111.9639
186.5765,112.0449
186.5145,112.1244
186.4508,112.2026
186.3855,112.2796
186.3867,112.3174
186.3873,112.3537
186.3879,112.3713
186.3888,112.3886
186.3902,112.4056
186.3923,112.4223
186.3952,112.4387
186.3991,112.4548
186.4041,112.4707
186.4072,112.4785
186.4105,112.4863
186.4142,112.4940
186.4184,112.5017
186.4229,112.5093
186.4278,112.5169
186.4332,112.5244
186.4391,112.5319
186.4455,112.5394
186.4523,112.5467
186.5166,112.6273
186.5794,112.7091
186.6403,112.7920
186.6994,112.8762
186.7564,112.9617
186.8111,113.0485
186.8635,113.1367
186.9134,113.2263
186.9610,113.3179
187.0075,113.4102
187.0524,113.5035
187.0952,113.5976
187.1353,113.6929
187.1721,113.7894
187.1892,113.8381
187.2052,113.8872
187.2202,113.9366
187.2341,113.9864
187.2657,114.1266
187.2923,114.2677
187.3143,114.4095
187.3321,114.5518
187.3460,114.6946
187.3566,114.8376
187.3640,114.9808
187.3688,115.1238
187.3703,115.2960
187.3692,115.4681
187.3655,115.6402
187.3592,115.8122
187.3503,115.9839
187.3389,116.1555
187.3249,116.3266
187.3085,116.4974
187.2822,116.7186
187.2676,116.8293
187.2513,116.9397
187.2331,117.0499
187.2123,117.1597
187.1886,117.2689
187.1614,117.3775
187.1414,117.4426
187.1202,117.5076
187.0979,117.5722
187.0745,117.6365
187.0503,117.7006
187.0252,117.7643
186.9993,117.8276
186.9727,117.8906
186.9289,117.9894
186.8835,118.0877
186.8362,118.1852
186.7870,118.2817
186.7354,118.3769
186.6814,118.4708
186.6246,118.5630
186.5648,118.6533
186.5644,118.6550
186.5641,118.6566
186.5637,118.6581
186.5635,118.6595
186.5633,118.6608
186.5631,118.6620
186.5630,118.6631
186.5630,118.6641
186.5630,118.6650
186.5630,118.6659
186.5631,118.6667
186.5632,118.6674
186.5634,118.6681
186.5637,118.6686
186.5639,118.6692
186.5642,118.6696
186.5646,118.6700
186.5650,118.6704
186.5654,118.6707
186.5659,118.6710
186.5664,118.6712
186.5670,118.6714
186.5676,118.6715
186.5682,118.6717
186.5696,118.6718
186.5710,118.6719
186.5744,118.6719
186.6263,118.7322
186.6763,118.7940
186.7245,118.8573
186.7708,118.9219
186.8152,118.9878
186.8578,119.0550
186.8986,119.1234
186.9375,119.1929
186.9745,119.2634
187.0096,119.3350
187.0428,119.4074
187.0742,119.4807
187.1036,119.5547
187.1312,119.6295
187.1568,119.7049
187.1806,119.7809
187.1997,119.8478
187.2174,119.9150
187.2484,120.0503
187.2744,120.1867
187.2958,120.3240
187.3133,120.4620
187.3274,120.6005
187.3388,120.7392
187.3481,120.8780
187.3641,121.2093
187.3745,121.5407
187.3839,122.2038
187.3896,123.5295
187.4376,123.5891
187.4843,123.6497
187.5297,123.7113
187.5739,123.7737
187.6167,123.8371
187.6582,123.9014
187.6983,123.9665
187.7371,124.0325
187.7745,124.0992
187.8104,124.1668
187.8449,124.2351
187.8778,124.3042
187.9093,124.3740
187.9393,124.4444
187.9677,124.5156
187.9946,124.5873
188.0492,124.7659
188.0832,124.9077
188.1167,125.0794
188.1458,125.2771
188.1668,125.4970
188.1759,125.7352
188.1695,125.9880
188.1436,126.2516
188.0946,126.5219
188.0603,126.6585
188.0187,126.7954
187.9695,126.9320
187.9121,127.0680
187.8462,127.2028
187.7711,127.3360
187.6865,127.4671
187.5919,127.5956
187.4868,127.7210
187.3707,127.8428
187.2432,127.9606
187.1038,128.0739
187.0608,128.1070
187.0170,128.1389
186.9726,128.1700
186.9276,128.2001
186.8359,128.2576
186.7422,128.3119
186.6468,128.3633
186.5500,128.4122
186.4522,128.4587
186.3536,128.5034
186.3339,128.5589
186.3134,128.6143
186.2922,128.6694
186.2701,128.7242
186.2473,128.7786
186.2237,128.8327
186.1992,128.8864
186.1738,128.9395
186.1385,129.0116
186.1014,129.0827
186.0626,129.1527
186.0218,129.2216
185.9791,129.2892
185.9342,129.3554
185.8871,129.4201
185.8627,129.4519
185.8377,129.4832
185.7815,129.5493
185.7232,129.6137
185.6631,129.6764
185.6011,129.7373
185.5374,129.7964
185.4720,129.8536
185.4049,129.9089
185.3362,129.9622
185.2660,130.0135
185.1944,130.0628
185.1213,130.1099
185.0469,130.1549
184.9713,130.1977
184.8944,130.2383
184.8164,130.2766
184.7373,130.3126
184.6751,130.3387
184.6120,130.3628
184.5483,130.3850
184.4840,130.4057
184.4192,130.4252
184.3539,130.4438
184.2225,130.4795
184.2225,131.1317
184.3538,131.2009
184.4833,131.2733
184.6105,131.3489
184.7352,131.4279
184.8570,131.5105
184.9756,131.5970
185.0906,131.6875
185.2017,131.7822
185.3087,131.8813
185.4111,131.9850
185.5087,132.0935
185.6011,132.2069
185.6880,132.3256
185.7690,132.4496
185.8439,132.5792
185.9123,132.7145
185.9367,132.7593
185.9601,132.8046
185.9825,132.8503
186.0039,132.8965
186.0438,132.9901
186.0801,133.0851
186.1130,133.1815
186.1426,133.2790
186.1691,133.3775
186.1928,133.4767
186.2230,133.6316
186.2490,133.7866
186.2900,134.0978
186.3198,134.4122
186.3427,134.7318
186.3839,135.3943
186.4106,135.7411
186.4468,136.1009
186.4660,136.2432
186.4763,136.3151
186.4873,136.3871
186.5081,136.4942
186.5298,136.5903
186.5526,136.6773
186.5765,136.7570
186.6016,136.8312
186.6280,136.9018
186.6854,137.0389
186.7493,137.1829
186.8206,137.3481
186.8593,137.4432
186.9001,137.5490
186.9432,137.6673
186.9887,137.8000
187.0298,137.9308
187.0666,138.0630
187.0987,138.1966
187.1256,138.3312
187.1368,138.3989
187.1466,138.4668
187.1548,138.5350
187.1613,138.6033
187.1660,138.6717
187.1690,138.7404
187.1701,138.8091
187.1693,138.8779
187.1586,139.0559
187.1394,139.2274
187.1120,139.3924
187.0770,139.5510
187.0347,139.7033
186.9856,139.8494
186.9301,139.9893
186.8686,140.1233
186.8016,140.2512
186.7293,140.3733
186.6524,140.4896
186.5711,140.6002
186.4860,140.7051
186.3974,140.8045
186.3058,140.8985
186.2115,140.9871
186.1151,141.0703
186.0168,141.1484
185.8167,141.2892
185.6146,141.4102
185.4137,141.5120
185.2176,141.5953
185.0295,141.6608
184.8529,141.7090
184.6911,141.7408
184.6443,141.7507
184.5975,141.7594
184.5506,141.7669
184.5037,141.7734
184.4096,141.7834
184.3154,141.7901
184.2210,141.7942
184.1266,141.7963
183.9379,141.7971
176.3867,141.8416
168.8476,141.9298
162.8707,141.9940
160.9525,141.9960
160.0063,141.9666
159.8177,141.9457
159.7235,141.9350
159.6295,141.9233
159.5358,141.9099
159.4424,141.8940
159.3496,141.8751
159.3035,141.8643
159.2575,141.8524
159.2075,141.8384
159.1580,141.8231
159.1089,141.8066
159.0602,141.7890
159.0120,141.7703
158.9641,141.7506
158.8694,141.7085
158.7761,141.6632
158.6840,141.6152
158.5932,141.5651
158.5034,141.5134
158.2818,141.3795
158.0611,141.2438
157.8391,141.1101
157.7269,141.0452
157.6135,140.9822
157.1612,141.1848
156.8765,141.3087
156.7313,141.3678
156.5846,141.4235
156.4365,141.4751
156.2872,141.5215
156.1369,141.5618
155.9858,141.5950
155.8341,141.6202
155.6820,141.6363
155.5297,141.6425
155.3774,141.6377
155.2253,141.6211
155.1494,141.6080
155.0736,141.5916
154.9979,141.5717
154.9224,141.5483
154.8471,141.5211
154.7721,141.4902
154.1173,141.6637
153.4606,141.8296
152.8017,141.9864
152.1406,142.1328
151.4770,142.2675
150.8109,142.3889
150.1420,142.4958
149.4702,142.5868
148.7889,142.6727
148.1737,142.7405
147.6192,142.7910
147.1202,142.8248
146.6712,142.8425
146.2669,142.8447
145.9019,142.8322
145.5709,142.8055
145.2685,142.7654
144.9893,142.7125
144.7281,142.6473
144.4700,142.5707
144.2100,142.5000
143.9500,142.4300
143.7300,142.3800
143.5000,142.3300
143.2900,142.2900
143.1200,142.2600
143.0100,142.2400
142.9200,142.2300
142.8600,142.2300
142.7700,142.2400
142.7100,142.2500
142.6000,142.2700
142.4700,142.2900
142.3500,142.3100
142.2400,142.3300
142.1100,142.3500
141.9900,142.3700
141.8700,142.3900
141.7000,142.4200
141.5200,142.4500
141.3971,142.4700
141.2338,142.4991
141.0694,142.5215
140.9041,142.5373
140.7382,142.5465
140.4049,142.5447
140.0712,142.5163
139.9046,142.4921
139.7384,142.4611
139.5728,142.4234
139.4080,142.3790
139.2441,142.3279
139.0815,142.2700
138.9202,142.2054
138.7604,142.1340
138.6023,142.0558
138.4400,141.9700
138.3100,141.9100
138.1300,141.8200
137.9600,141.7300
137.7800,141.6500
137.6600,141.5900
137.5500,141.5400
137.4200,141.4800
137.2800,141.4200
137.1600,141.3600
136.9800,141.2900
136.8400,141.2300
136.6600,141.2000
136.5200,141.2000
136.3900,141.2200
136.2400,141.2600
135.9900,141.3600
135.6200,141.4900
135.3000,141.6100
134.8500,141.7800
134.3200,141.9800
133.7400,142.1700
133.3100,142.2700
132.9400,142.3300
132.5400,142.3600
132.2200,142.3700
131.9600,142.3700
131.8600,142.3700
131.7800,142.3700
131.7000,142.3700
131.6400,142.3700
131.5800,142.3700
131.5041,142.3700
131.4300,142.3700
131.3600,142.3700
131.1684,142.3751
130.9645,142.3776
130.5566,142.3767
129.7411,142.3697
126.0185,142.2550
122.2967,142.1176
114.8538,141.8240
114.3138,141.8112
114.1789,141.8060
114.0441,141.7989
113.9094,141.7895
113.7748,141.7770
113.5280,141.7442
113.2892,141.6943
113.0590,141.6280
112.8379,141.5459
112.6264,141.4486
112.4252,141.3367
112.2347,141.2110
112.0556,141.0720
111.8883,140.9203
111.7333,140.7567
111.5913,140.5818
111.4628,140.3961
111.3483,140.2003
111.2484,139.9952
111.1636,139.7812
111.0944,139.5590
111.0414,139.3294
111.0052,139.0928
110.9863,138.8501
110.9852,138.6017
111.0025,138.3483
111.0387,138.0906
111.0943,137.8292
111.1700,137.5648
111.2662,137.2979
111.3836,137.0292
111.5225,136.7594
111.6837,136.4891
111.8676,136.2190
112.0748,135.9496
112.3057,135.6816
112.5611,135.4156
112.6060,135.3697
112.6523,135.3251
112.6998,135.2816
112.7481,135.2391
112.7972,135.1973
112.8468,135.1561
112.9467,135.0746
112.9488,134.7732
112.9518,134.6228
112.9573,134.4725
112.9690,133.2602
112.9705,132.6540
112.9666,132.0479
112.8936,131.9498
112.8577,131.9004
112.8223,131.8507
112.7875,131.8006
112.7533,131.7503
112.7197,131.6996
112.6868,131.6484
112.6018,131.5105
112.5222,131.3694
112.4846,131.2976
112.4486,131.2251
112.4140,131.1519
112.3810,131.0779
112.3497,131.0032
112.3200,130.9279
112.2921,130.8519
112.2659,130.7752
112.2416,130.6979
112.2190,130.6200
112.1984,130.5415
112.1797,130.4624
112.1682,130.4115
112.1579,130.3603
112.1407,130.2574
112.1274,130.1539
112.1174,130.0499
112.1100,129.9455
112.1045,129.8409
112.0968,129.6315
112.0409,129.5895
111.9858,129.5464
111.9315,129.5022
111.8781,129.4568
111.8256,129.4103
111.7743,129.3626
111.7240,129.3137
111.6750,129.2635
111.6221,129.2057
111.5704,129.1468
111.5201,129.0869
111.4709,129.0259
111.4231,128.9639
111.3765,128.9010
111.3311,128.8373
111.2870,128.7726
111.2442,128.7071
111.2025,128.6409
111.1230,128.5062
111.0485,128.3688
110.9789,128.2290
110.9333,128.1302
110.8904,128.0304
110.8501,127.9295
110.8124,127.8276
110.7772,127.7248
110.7447,127.6211
110.7148,127.5167
110.6874,127.4115
110.6627,127.3057
110.6405,127.1993
110.6209,127.0924
110.6039,126.9851
110.5894,126.8774
110.5775,126.7693
110.5682,126.6611
110.5615,126.5526
110.5551,126.4015
110.5542,126.2502
110.5591,126.0991
110.5699,125.9484
110.5867,125.7983
110.6097,125.6490
110.6236,125.5748
110.6391,125.5009
110.6562,125.4274
110.6749,125.3542
110.6929,125.2882
110.7112,125.2251
110.7300,125.1647
110.7491,125.1070
110.7684,125.0519
110.7879,124.9993
110.8075,124.9490
110.8272,124.9011
110.8664,124.8118
110.9050,124.7308
110.9425,124.6572
110.9783,124.5903
111.0429,124.4740
111.0706,124.4232
111.0945,124.3762
111.1142,124.3325
111.1222,124.3116
111.1290,124.2912
111.1344,124.2713
111.1385,124.2517
111.1410,124.2324
111.1421,124.2132
111.1464,123.8521
111.1497,123.6710
111.1552,123.4897
111.2914,110.9744
111.3455,104.7173
111.3613,98.4587
111.2747,98.2812
111.1890,98.0919
111.1065,97.8916
111.0296,97.6814
110.9607,97.4620
110.9023,97.2344
110.8567,96.9995
110.8264,96.7582
110.8137,96.5114
110.8211,96.2600
110.8331,96.1329
110.8509,96.0049
110.8750,95.8763
110.9056,95.7470
110.9430,95.6173
110.9876,95.4872
111.0395,95.3569
111.0992,95.2264
111.1669,95.0959
111.2429,94.9655
111.3276,94.8353
111.4211,94.7054
111.4569,92.9872
111.3418,92.8012
111.2595,92.6447
111.1683,92.4502
111.0740,92.2211
110.9823,91.9604
110.8988,91.6715
110.8292,91.3577
110.7794,91.0220
110.7549,90.6679
110.7616,90.2985
110.7783,90.1091
110.8050,89.9171
110.8423,89.7229
110.8910,89.5270
110.9517,89.3296
111.0252,89.1313
111.1122,88.9324
111.2134,88.7333
111.3294,88.5345
111.4612,88.3363
111.4535,86.7271
111.3021,86.4829
111.1673,86.2348
111.0499,85.9832
110.9505,85.7288
110.8698,85.4721
110.8085,85.2136
110.7672,84.9539
110.7467,84.6935
110.7476,84.4329
110.7563,84.3028
110.7706,84.1728
110.7906,84.0430
110.8164,83.9136
110.8480,83.7845
110.8856,83.6559
110.9292,83.5278
110.9790,83.4002
111.0349,83.2733
111.0971,83.1471
111.1657,83.0217
111.2408,82.8972
111.3224,82.7735
111.4106,82.6509
111.4191,82.0879
111.4204,81.2494
111.4143,80.4609
111.4086,80.1871
111.4011,80.0479
111.3210,79.7863
111.2523,79.5216
111.1960,79.2549
111.1529,78.9867
111.1236,78.7180
111.1090,78.4495
111.1099,78.1820
111.1270,77.9163
111.1613,77.6531
111.2134,77.3933
111.2841,77.1377
111.3744,76.8869
111.4848,76.6419
111.5479,76.5218
111.6163,76.4034
111.6902,76.2868
111.7697,76.1722
111.8548,76.0595
111.9456,75.9490
111.9921,75.8974
112.0394,75.8466
112.0877,75.7967
112.1369,75.7477
112.1871,75.6996
112.2381,75.6525
112.2900,75.6064
112.3429,75.5614
112.3965,75.5174
112.4511,75.4745
112.5065,75.4328
112.5628,75.3922
112.6199,75.3528
112.6778,75.3146
112.7365,75.2777
112.7961,75.2420
112.8229,74.8477
112.8416,74.6503
112.8537,74.5521
112.8683,74.4546
112.8858,74.3577
112.9066,74.2617
112.9310,74.1668
112.9597,74.0731
112.9928,73.9809
113.0310,73.8901
113.0746,73.8011
113.1240,73.7140
113.1291,73.4496
113.1376,73.2727
113.1520,73.0738
113.1736,72.8585
113.2039,72.6329
113.2227,72.5179
113.2442,72.4026
113.2685,72.2875
113.2959,72.1735
113.3110,72.1137
113.3277,72.0544
113.3462,71.9957
113.3662,71.9376
113.3878,71.8800
113.4108,71.8231
113.4353,71.7667
113.4612,71.7110
113.4869,71.6591
113.5136,71.6076
113.5412,71.5565
113.5696,71.5060
113.5990,71.4559
113.6293,71.4064
113.6605,71.3574
113.6925,71.3090
113.7255,71.2612
113.7593,71.2141
113.7941,71.1676
113.8297,71.1219
113.8663,71.0768
113.9037,71.0325
113.9420,70.9889
113.9812,70.9462
114.0350,70.8898
114.0895,70.8341
114.1448,70.7791
114.2010,70.7252
114.2582,70.6725
114.3167,70.6213
114.3765,70.5717
114.4070,70.5476
114.4379,70.5240
114.4656,70.5031
114.4938,70.4828
114.5514,70.4436
114.6104,70.4066
114.6708,70.3717
114.7322,70.3391
114.7946,70.3087
114.8576,70.2805
114.9212,70.2547
114.9909,70.2260
115.0610,70.1980
115.1316,70.1711
115.2026,70.1453
115.2740,70.1210
115.3458,70.0982
115.4179,70.0773
115.4902,70.0584
115.5533,70.0404
115.6167,70.0243
115.6804,70.0098
115.7443,69.9966
115.8084,69.9844
115.8727,69.9730
116.0016,69.9514
116.3996,69.8928
116.7982,69.8392
117.5967,69.7428
119.1949,69.5587
119.1977,69.5011
119.2047,69.4147
119.2181,69.3037
119.2399,69.1720
119.2546,69.0997
119.2722,69.0237
119.2930,68.9445
119.3171,68.8628
119.3449,68.7789
119.3766,68.6934
119.4124,68.6067
119.4527,68.5195
119.4884,68.4481
119.5263,68.3779
119.5663,68.3090
119.6085,68.2413
119.6527,68.1749
119.6988,68.1099
119.7469,68.0464
119.7970,67.9843
119.8488,67.9238
119.9025,67.8648
119.9579,67.8075
120.0150,67.7520
120.0737,67.6982
120.1341,67.6462
120.1960,67.5961
120.2595,67.5479
120.3383,66.8159
120.3612,66.6334
120.3871,66.4512
120.4167,66.2696
120.4509,66.0886
120.4800,65.9515
120.5131,65.8151
120.5502,65.6797
120.5914,65.5455
120.6369,65.4126
120.6868,65.2812
120.7412,65.1517
120.8001,65.0241
120.8217,64.9795
120.8440,64.9353
120.8671,64.8915
120.8910,64.8481
120.9156,64.8052
120.9410,64.7628
120.9672,64.7209
120.9941,64.6794
121.0218,64.6386
121.0503,64.5982
121.0795,64.5585
121.1095,64.5194
121.1403,64.4809
121.1719,64.4430
121.2042,64.4058
121.2373,64.3693
121.2757,64.3288
121.3150,64.2891
121.3553,64.2503
121.3966,64.2125
121.4387,64.1758
121.4818,64.1401
121.5257,64.1055
121.5705,64.0722
121.6162,64.0401
121.6628,64.0092
121.7102,63.9797
121.7584,63.9516
121.8074,63.9249
121.8573,63.8998
121.9079,63.8761
121.9594,63.8541
122.0155,63.8321
122.0722,63.8116
122.1293,63.7926
122.1869,63.7750
122.2449,63.7589
122.3032,63.7443
122.3619,63.7312
122.4209,63.7194
122.4801,63.7091
122.5396,63.7002
122.5993,63.6927
122.6591,63.6866
122.7190,63.6819
122.7790,63.6785
122.8390,63.6765
122.8991,63.6758
123.0129,63.6774
123.1265,63.6829
123.2399,63.6926
123.3528,63.7066
123.4651,63.7250
123.5210,63.7359
123.5766,63.7481
123.6320,63.7614
123.6871,63.7759
123.7418,63.7916
123.7963,63.8086
123.7991,63.2611
123.8021,62.9873
123.8077,62.7136
123.8098,62.4455
123.8127,62.3115
123.8151,62.2446
123.8183,62.1777
123.8232,62.0808
123.8319,61.9842
123.8443,61.8881
123.8605,61.7925
123.8802,61.6975
123.9036,61.6035
123.9306,61.5103
123.9610,61.4183
123.9950,61.3276
124.0324,61.2381
124.0732,61.1502
124.1173,61.0640
124.1648,60.9795
124.2155,60.8969
124.2695,60.8164
124.3267,60.7380
124.3819,60.6692
124.4388,60.6018
124.4974,60.5357
124.5577,60.4712
124.6198,60.4084
124.6837,60.3475
124.7494,60.2885
124.7829,60.2598
124.8169,60.2316
124.8452,60.2083
124.8739,60.1857
124.9323,60.1421
124.9921,60.1006
125.0531,60.0612
125.1154,60.0238
125.1789,59.9881
125.2436,59.9540
125.3093,59.9215
125.3638,59.8978
125.4189,59.8753
125.4746,59.8541
125.5308,59.8342
125.5874,59.8156
125.6445,59.7982
125.7020,59.7822
125.7598,59.7675
125.8180,59.7541
125.8765,59.7421
125.9352,59.7313
125.9941,59.7218
126.0532,59.7137
126.1125,59.7069
126.1719,59.7014
126.2313,59.6973
126.3066,59.6935
126.3821,59.6917
126.4576,59.6920
126.5331,59.6943
126.6086,59.6987
126.6839,59.7052
126.7589,59.7139
126.8336,59.7248
126.9080,59.7378
126.9819,59.7532
127.0552,59.7708
127.1280,59.7907
127.2000,59.8130
127.2713,59.8376
127.3418,59.8647
127.4113,59.8941
127.4813,59.9269
127.5502,59.9617
127.6181,59.9984
127.6849,60.0370
127.7506,60.0775
127.8152,60.1197
127.8787,60.1636
127.9410,60.2091
128.0021,60.2563
128.0619,60.3050
128.1206,60.3551
128.1779,60.4068
128.2340,60.4597
128.2888,60.5140
128.3422,60.5696
128.3942,60.6264
128.4392,60.6778
128.4831,60.7302
128.5259,60.7837
128.5675,60.8382
128.6077,60.8936
128.6466,60.9501
128.6841,61.0074
128.7201,61.0657
128.7545,61.1249
128.7872,61.1850
128.8183,61.2459
128.8475,61.3077
128.8748,61.3703
128.9003,61.4337
128.9237,61.4978
128.9450,61.5628
128.9595,61.6129
128.9728,61.6633
128.9849,61.7140
128.9958,61.7649
129.0144,61.8674
129.0291,61.9705
129.0404,62.0741
129.0488,62.1780
129.0549,62.2820
129.0592,62.3860
129.0646,63.7074
129.0735,65.0292
129.1954,65.0251
129.3322,65.0170
129.6212,64.9947
129.8829,64.9732
129.9854,64.9662
130.0595,64.9636
130.0648,64.8721
130.0717,64.7808
130.0806,64.6895
130.0916,64.5985
130.1048,64.5078
130.1205,64.4174
130.1389,64.3275
130.1600,64.2381
130.1828,64.1523
130.2088,64.0676
130.2377,63.9839
130.2696,63.9014
130.3042,63.8200
130.3416,63.7398
130.3815,63.6609
130.4238,63.5833
130.4671,63.5092
130.5124,63.4362
130.5597,63.3644
130.6088,63.2939
130.6599,63.2247
130.7128,63.1570
130.7674,63.0907
130.8239,63.0259
130.8821,62.9628
130.9420,62.9012
131.0036,62.8415
131.0669,62.7834
131.1317,62.7273
131.1981,62.6730
131.2661,62.6207
131.3355,62.5705
131.3956,62.5291
131.4570,62.4898
131.5196,62.4525
131.5834,62.4174
131.6483,62.3844
131.7142,62.3534
131.7810,62.3246
131.8487,62.2978
131.9171,62.2732
131.9863,62.2506
132.0562,62.2302
132.1266,62.2118
132.1975,62.1956
132.2689,62.1815
132.3406,62.1695
132.4126,62.1596
132.5013,62.1497
132.5903,62.1428
132.6796,62.1390
132.7689,62.1383
132.8582,62.1406
132.9473,62.1461
133.0362,62.1546
133.1248,62.1662
133.2128,62.1808
133.3003,62.1985
133.3872,62.2192
133.4732,62.2430
133.5583,62.2698
133.6424,62.2996
133.7254,62.3325
133.8071,62.3684
133.8738,62.4005
133.9395,62.4346
134.0042,62.4706
134.0677,62.5085
134.1301,62.5482
134.1914,62.5896
134.2515,62.6327
134.3104,62.6774
134.3681,62.7237
134.4245,62.7716
134.4797,62.8209
134.5336,62.8716
134.5862,62.9236
134.6375,62.9769
134.6874,63.0315
134.7360,63.0872
134.8101,63.1787
134.8815,63.2724
134.9499,63.3683
135.0153,63.4664
135.0773,63.5667
135.1358,63.6692
135.1905,63.7738
135.2164,63.8268
135.2412,63.8805
135.2598,63.9233
135.2772,63.9666
135.2934,64.0103
135.3083,64.0543
135.3222,64.0987
135.3350,64.1434
135.3468,64.1884
135.3576,64.2336
135.3765,64.3248
135.3920,64.4167
135.4046,64.5091
135.4146,64.6019
135.4235,64.7582
135.4307,64.9147
135.4411,65.2281
135.4552,65.8555
136.0394,65.8764
136.3329,65.8913
136.6254,65.9154
136.7708,65.9323
136.9153,65.9532
137.0588,65.9787
137.2011,66.0094
137.3419,66.0458
137.4812,66.0884
137.6187,66.1380
137.7541,66.1950
137.8134,66.2257
137.8718,66.2580
137.9293,66.2919
137.9858,66.3273
138.0415,66.3641
138.0961,66.4024
138.1498,66.4420
138.2025,66.4829
138.2543,66.5250
138.3051,66.5683
138.3549,66.6127
138.4037,66.6582
138.4514,66.7048
138.4982,66.7522
138.5439,66.8006
138.5886,66.8498
138.6584,66.9367
138.7252,67.0249
138.7890,67.1143
138.8500,67.2050
138.9081,67.2969
138.9635,67.3901
139.0162,67.4846
139.0663,67.5804
139.1138,67.6774
139.1589,67.7758
139.2014,67.8755
139.2417,67.9765
139.2796,68.0788
139.3152,68.1825
139.3487,68.2875
139.3801,68.3939
139.3876,68.4139
139.3948,68.4342
139.4086,68.4751
139.4156,68.4952
139.4228,68.5149
139.4304,68.5339
139.4344,68.5431
139.4385,68.5520
139.5537,68.6953
139.6102,68.7678
139.6652,68.8413
139.7186,68.9161
139.7697,68.9923
139.7944,69.0311
139.8183,69.0703
139.8415,69.1101
139.8639,69.1504
139.9000,69.2110
139.9337,69.2730
139.9649,69.3362
139.9795,69.3683
139.9934,69.4007
140.0067,69.4334
140.0193,69.4663
140.0311,69.4996
140.0423,69.5330
140.0526,69.5667
140.0622,69.6007
140.0710,69.6349
140.0790,69.6693
140.0902,69.7221
140.1002,69.7750
140.1170,69.8814
140.1301,69.9883
140.1405,70.0956
140.1714,70.5250
140.2047,70.5609
140.2209,70.5790
140.2370,70.5974
140.2529,70.6161
140.2685,70.6353
140.2840,70.6552
140.2993,70.6759
140.3286,70.7151
140.3569,70.7550
140.3843,70.7955
140.4108,70.8366
140.4362,70.8784
140.4607,70.9207
140.4841,70.9636
140.5065,71.0070
140.5278,71.0510
140.5480,71.0954
140.5670,71.1404
140.5849,71.1858
140.6016,71.2316
140.6171,71.2778
140.6314,71.3245
140.6444,71.3715
140.6638,71.4577
140.6809,71.5443
140.6959,71.6312
140.7090,71.7185
140.7204,71.8060
140.7303,71.8938
140.7389,71.9819
140.7465,72.0701
140.7633,72.3155
140.7768,72.5609
140.7959,73.0518
140.8191,74.0338
140.8628,74.0537
140.9060,74.0746
140.9487,74.0964
140.9909,74.1192
141.0326,74.1428
141.0738,74.1674
141.1145,74.1929
141.1546,74.2192
141.1942,74.2463
141.2332,74.2742
141.2717,74.3030
141.3097,74.3324
141.3471,74.3627
141.3839,74.3936
141.4202,74.4253
141.4558,74.4576
141.5026,74.5009
141.5485,74.5452
141.5936,74.5905
141.6377,74.6367
141.6808,74.6839
141.7229,74.7320
141.7638,74.7811
141.8035,74.8311
141.8421,74.8820
141.8793,74.9339
141.9151,74.9867
141.9496,75.0404
141.9826,75.0950
142.0140,75.1505
142.0439,75.2070
142.0721,75.2643
142.0963,75.3174
142.1191,75.3710
142.1405,75.4251
142.1606,75.4798
142.1793,75.5349
142.1968,75.5903
142.2131,75.6462
142.2281,75.7024
142.2549,75.8157
142.2773,75.9300
142.2958,76.0450
142.3106,76.1603
142.3608,77.2802
142.3736,77.4175
142.3910,77.5539
142.4140,77.6892
142.4435,77.8232
142.4805,77.9558
142.5259,78.0869
142.5807,78.2164
142.6458,78.3442
142.7186,78.5178
142.8036,78.7128
142.8944,78.9149
142.9843,79.1100
143.0670,79.2840
143.1359,79.4227
143.1845,79.5121
143.1991,79.5338
143.2036,79.5382
143.2061,79.5379
143.2495,79.4668
143.2711,79.4312
143.2924,79.3953
143.3130,79.3591
143.3326,79.3224
143.3419,79.3038
143.3509,79.2851
143.3595,79.2661
143.3677,79.2470
143.4143,78.2427
143.4457,77.3991
143.4653,76.6989
143.4767,76.1245
143.4878,75.2836
143.4944,74.9823
143.5062,74.7372
143.5088,74.6940
143.5122,74.6510
143.5167,74.6080
143.5221,74.5651
143.5285,74.5223
143.5359,74.4798
143.5444,74.4374
143.5539,74.3953
143.5646,74.3535
143.5763,74.3120
143.5892,74.2709
143.6033,74.2302
143.6186,74.1899
143.6351,74.1501
143.6528,74.1108
143.6719,74.0721
143.7060,74.0084
143.7435,73.9466
143.7841,73.8869
143.8276,73.8294
143.8741,73.7741
143.9232,73.7211
143.9750,73.6707
144.0291,73.6228
144.0855,73.5777
144.1441,73.5353
144.2047,73.4958
144.2671,73.4594
144.3313,73.4261
144.3970,73.3960
144.4642,73.3693
144.5327,73.3460
144.6127,73.3228
144.6940,73.3046
144.7762,73.2915
144.8591,73.2833
144.9423,73.2800
145.0256,73.2816
145.1087,73.2880
145.1913,73.2993
145.2731,73.3152
145.3539,73.3359
145.4332,73.3613
145.5110,73.3912
145.5868,73.4258
145.6604,73.4648
145.7315,73.5084
145.7998,73.5564
145.8527,73.5972
145.9036,73.6406
145.9524,73.6863
145.9989,73.7344
146.0432,73.7846
146.0851,73.8369
146.1245,73.8911
146.1613,73.9470
146.1955,74.0047
146.2269,74.0639
146.2555,74.1245
146.2812,74.1864
146.3039,74.2495
146.3235,74.3137
146.3399,74.3788
146.3531,74.4447
146.3602,74.5111
146.3661,74.5777
146.3710,74.6446
146.3751,74.7116
146.3889,74.9806
146.4128,76.0934
146.4295,77.2120
146.4561,78.3093
146.4784,78.8417
146.5097,79.3586
146.6243,79.5919
146.7355,79.8269
146.9497,80.3008
147.3635,81.2551
147.3824,81.2990
147.4007,81.3432
147.4184,81.3876
147.4353,81.4323
147.4515,81.4772
147.4668,81.5225
147.4813,81.5680
147.4949,81.6137
147.5051,81.5634
147.5164,81.5133
147.5288,81.4634
147.5422,81.4138
147.5567,81.3644
147.5723,81.3154
147.5888,81.2667
147.6064,81.2184
147.5988,80.9213
147.5970,80.6236
147.5999,80.3256
147.6064,80.0273
147.6062,79.9796
147.6072,79.9318
147.6095,79.8840
147.6131,79.8363
147.6181,79.7887
147.6243,79.7412
147.6319,79.6939
147.6408,79.6468
147.6511,79.6000
147.6629,79.5535
147.6760,79.5074
147.6906,79.4618
147.7066,79.4165
147.7240,79.3718
147.7430,79.3277
147.7635,79.2842
147.7665,79.2138
147.7713,79.1435
147.7779,79.0732
147.7861,79.0030
147.7959,78.9330
147.8072,78.8632
147.8200,78.7937
147.8341,78.7245
147.9082,78.4806
148.0661,78.0155
148.5204,76.6975
148.7604,75.9826
148.9712,75.3225
149.1247,74.7862
149.1711,74.5860
149.1926,74.4426
149.2254,72.8047
149.2632,71.1668
149.2639,71.1173
149.2658,71.0681
149.2691,71.0190
149.2738,70.9702
149.2801,70.9216
149.2879,70.8731
149.2973,70.8248
149.3085,70.7767
149.3178,70.7405
149.3280,70.7045
149.3392,70.6687
149.3513,70.6333
149.3643,70.5981
149.3781,70.5633
149.3929,70.5289
149.4085,70.4948
149.4250,70.4612
149.4423,70.4280
149.4605,70.3953
149.4795,70.3631
149.4993,70.3314
149.5200,70.3003
149.5415,70.2697
149.5637,70.2398
149.6084,70.1842
149.6558,70.1310
149.7059,70.0803
149.7586,70.0322
149.8136,69.9868
149.8708,69.9443
149.9301,69.9047
149.9912,69.8680
150.0541,69.8345
150.1186,69.8042
150.1845,69.7771
150.2517,69.7535
150.3199,69.7334
150.3892,69.7169
150.4592,69.7041
150.5298,69.6951
150.5747,69.6913
150.6197,69.6889
150.6647,69.6879
150.7098,69.6883
150.7548,69.6900
150.7997,69.6931
150.8446,69.6976
150.8893,69.7033
150.9338,69.7103
150.9781,69.7186
151.0221,69.7281
151.0659,69.7388
151.1093,69.7507
151.1523,69.7637
151.1950,69.7779
151.2372,69.7933
151.2674,69.8054
151.2973,69.8182
151.3271,69.8315
151.3565,69.8455
151.3857,69.8601
151.4145,69.8753
151.4431,69.8911
151.4713,69.9075
151.4991,69.9244
151.5266,69.9420
151.5537,69.9601
151.5804,69.9787
151.6066,69.9980
151.6325,70.0177
151.6578,70.0380
151.6827,70.0589
151.7344,70.1064
151.7835,70.1566
151.8299,70.2092
151.8735,70.2642
151.9143,70.3214
151.9522,70.3805
151.9870,70.4415
152.0187,70.5042
152.0473,70.5684
152.0726,70.6340
152.0945,70.7007
152.1130,70.7684
152.1281,70.8371
152.1395,70.9064
152.1473,70.9762
152.1513,71.0464
152.1618,71.7102
152.1675,72.2822
152.1725,73.2141
152.1807,73.9686
152.1907,74.3188
152.2069,74.6720
152.3125,75.0861
152.4304,75.4965
152.5586,75.9038
152.6948,76.3086
152.9832,77.1130
153.2785,77.9142
153.3131,77.9628
153.3461,78.0123
153.3774,78.0628
153.4070,78.1143
153.4346,78.1669
153.4477,78.1935
153.4602,78.2205
153.4722,78.2476
153.4836,78.2751
153.4944,78.3028
153.5046,78.3307
153.5168,78.3667
153.5279,78.4030
153.5381,78.4396
153.5473,78.4764
153.5556,78.5135
153.5630,78.5507
153.5758,78.6257
153.5859,78.7012
153.5940,78.7771
153.6004,78.8531
153.6057,78.9292
153.6203,78.9515
153.6343,78.9741
153.6611,79.0202
153.6862,79.0673
153.7094,79.1154
153.7308,79.1643
153.7504,79.2139
153.7683,79.2643
153.7844,79.3152
153.7945,79.3519
153.8034,79.3888
153.8111,79.4258
153.8178,79.4630
153.8236,79.5003
153.8286,79.5377
153.8363,79.6128
153.8418,79.6882
153.8458,79.7638
153.8522,79.9151
153.8617,80.6355
153.8641,81.3564
153.8618,82.7992
153.9079,82.8175
153.9535,82.8368
153.9986,82.8571
154.0433,82.8784
154.0875,82.9006
154.1312,82.9238
154.1744,82.9479
154.2172,82.9728
154.2594,82.9986
154.3012,83.0253
154.3424,83.0527
154.3831,83.0809
154.4233,83.1098
154.4630,83.1394
154.5407,83.2007
154.6112,83.2608
154.6805,83.3225
154.7481,83.3861
154.8137,83.4516
154.8457,83.4852
154.8771,83.5193
154.9078,83.5540
154.9377,83.5892
154.9670,83.6251
154.9955,83.6616
155.0231,83.6988
155.0498,83.7366
155.1060,83.7434
155.1618,83.7523
155.2173,83.7634
155.2723,83.7765
155.3267,83.7915
155.3806,83.8085
155.4338,83.8272
155.4862,83.8477
155.4869,83.8478
155.4876,83.8479
155.4884,83.8482
155.4892,83.8485
155.4910,83.8493
155.4929,83.8503
155.4967,83.8526
155.4986,83.8537
155.5003,83.8547
155.5018,83.8554
155.5025,83.8557
155.5031,83.8559
155.5036,83.8560
155.5041,83.8560
155.5045,83.8558
155.5046,83.8557
155.5047,83.8556
155.5048,83.8554
155.5049,83.8552
155.5049,83.8546
155.5048,83.8539
155.5046,83.8531
155.5043,83.8520
155.5038,83.8508
155.5032,83.8494
155.5024,83.8477
155.5420,79.4411
155.5829,77.2382
155.6563,75.0364
155.6590,74.9757
155.6642,74.9151
155.6717,74.8547
155.6815,74.7947
155.6937,74.7351
155.7082,74.6760
155.7249,74.6176
155.7439,74.5598
155.7652,74.5029
155.7887,74.4469
155.8144,74.3920
155.8423,74.3381
155.8723,74.2854
155.9045,74.2341
155.9389,74.1841
155.9754,74.1356
155.9822,73.8430
155.9848,73.7699
155.9883,73.6968
155.9929,73.6237
155.9989,73.5507
156.0044,73.4906
156.0125,73.4308
156.0231,73.3713
156.0362,73.3123
156.0518,73.2538
156.0698,73.1960
156.0901,73.1390
156.1129,73.0828
156.1379,73.0276
156.1652,72.9735
156.1948,72.9206
156.2266,72.8690
156.2606,72.8187
156.2968,72.7700
156.3351,72.7228
156.3755,72.6773
156.3868,72.6587
156.4122,71.6149
156.4304,71.0931
156.4436,70.8327
156.4603,70.5726
156.4748,70.4993
156.4932,70.4271
156.5155,70.3560
156.5415,70.2862
156.5712,70.2178
156.6044,70.1511
156.6410,70.0861
156.6808,70.0230
156.7238,69.9621
156.7698,69.9034
156.8188,69.8471
156.8704,69.7933
156.9248,69.7423
156.9817,69.6942
157.0410,69.6491
157.1026,69.6072
157.1461,69.5801
157.1905,69.5546
157.2358,69.5307
157.2819,69.5084
157.3287,69.4878
157.3762,69.4687
157.4242,69.4512
157.4728,69.4352
157.5219,69.4208
157.5715,69.4079
157.6213,69.3965
157.6715,69.3865
157.7220,69.3781
157.7726,69.3710
157.8234,69.3654
157.8742,69.3613
158.1789,69.3470
158.4837,69.3348
158.7885,69.3262
159.0934,69.3230
159.1154,67.3063
159.1346,66.2983
159.1696,65.2907
159.1739,65.2276
159.1808,65.1645
159.1852,65.1331
159.1903,65.1018
159.1960,65.0706
159.2024,65.0395
159.2095,65.0085
159.2172,64.9777
159.2256,64.9471
159.2347,64.9167
159.2445,64.8864
159.2549,64.8564
159.2660,64.8267
159.2779,64.7972
159.3040,64.7375
159.3329,64.6790
159.3645,64.6220
159.3986,64.5665
159.4353,64.5127
159.4743,64.4605
159.5156,64.4101
159.5592,64.3616
159.6048,64.3150
159.6525,64.2706
159.7021,64.2284
159.7536,64.1884
159.8068,64.1508
159.8617,64.1156
159.9181,64.0830
159.9760,64.0531
160.0375,64.0246
160.1002,63.9993
160.1640,63.9770
160.2288,63.9578
160.2944,63.9416
160.3607,63.9285
160.4275,63.9186
160.4947,63.9117
160.5622,63.9079
160.6297,63.9071
160.6972,63.9095
160.7646,63.9151
160.8316,63.9237
160.8981,63.9354
160.9640,63.9503
161.0292,63.9683
161.0653,63.9795
161.1011,63.9917
161.1365,64.0048
161.1715,64.0190
161.2062,64.0341
161.2403,64.0502
161.2741,64.0672
161.3074,64.0852
161.3401,64.1040
161.3724,64.1237
161.4041,64.1443
161.4353,64.1658
161.4658,64.1880
161.4958,64.2111
161.5251,64.2351
161.5538,64.2598
161.6033,64.3054
161.6506,64.3534
161.6957,64.4036
161.7384,64.4558
161.7786,64.5099
161.8164,64.5659
161.8515,64.6235
161.8839,64.6827
161.9136,64.7434
161.9404,64.8053
161.9643,64.8684
161.9851,64.9325
162.0028,64.9976
162.0174,65.0635
162.0286,65.1301
162.0365,65.1972
162.0591,65.5696
162.0764,65.9420
162.0893,66.3141
162.0988,66.6860
162.1279,66.6477
162.1582,66.6104
162.1899,66.5742
162.2227,66.5390
162.2567,66.5050
162.2918,66.4721
162.3280,66.4404
162.3653,66.4100
162.4035,66.3808
162.4427,66.3529
162.4829,66.3264
162.5240,66.3013
162.5659,66.2777
162.6086,66.2555
162.6521,66.2348
162.6963,66.2157
162.7011,65.8253
162.7049,65.6300
162.7106,65.4349
162.7120,65.3865
162.7146,65.3382
162.7185,65.2899
162.7238,65.2418
162.7304,65.1938
162.7383,65.1460
162.7476,65.0985
162.7583,65.0513
162.7705,65.0044
162.7841,64.9579
162.7991,64.9118
162.8156,64.8662
162.8336,64.8212
162.8531,64.7767
162.8742,64.7329
162.8968,64.6897
162.9363,64.6226
162.9796,64.5580
163.0264,64.4960
163.0766,64.4367
163.1300,64.3802
163.1864,64.3266
163.2456,64.2762
163.3074,64.2288
163.3716,64.1848
163.4381,64.1441
163.5065,64.1069
163.5769,64.0734
163.6489,64.0436
163.7223,64.0176
163.7971,63.9956
163.8729,63.9776
163.9277,63.9672
163.9827,63.9591
164.0381,63.9532
164.0936,63.9495
164.1492,63.9481
164.2048,63.9488
164.2604,63.9517
164.3158,63.9568
164.3710,63.9640
164.4258,63.9734
164.4803,63.9848
164.5342,63.9984
164.5877,64.0140
164.6404,64.0317
164.6925,64.0515
164.7437,64.0732
164.7892,64.0946
164.8340,64.1175
164.8779,64.1421
164.9209,64.1682
164.9629,64.1958
165.0039,64.2248
165.0439,64.2553
165.0828,64.2872
165.1205,64.3204
165.1570,64.3549
165.1922,64.3908
165.2261,64.4278
165.2587,64.4661
165.2899,64.5056
165.3196,64.5462
165.3478,64.5879
165.3725,64.6272
165.3958,64.6672
165.4177,64.7079
165.4382,64.7492
165.4574,64.7912
165.4751,64.8338
165.4916,64.8769
165.5066,64.9205
165.5204,64.9645
165.5328,65.0090
165.5440,65.0538
165.5538,65.0989
165.5624,65.1442
165.5697,65.1898
165.5758,65.2355
165.5806,65.2814
165.5901,65.5158
165.5959,65.7506
165.6063,66.2209
165.6449,66.2389
165.6829,66.2580
165.7204,66.2782
165.7573,66.2995
165.7935,66.3219
165.8290,66.3453
165.8639,66.3697
165.8980,66.3952
165.9314,66.4217
165.9639,66.4492
165.9956,66.4777
166.0264,66.5071
166.0563,66.5375
166.0852,66.5689
166.1132,66.6011
166.1401,66.6343
166.1692,66.6719
166.1969,66.7106
166.2230,66.7503
166.2477,66.7909
166.2709,66.8323
166.2927,66.8746
166.3130,66.9175
166.3319,66.9611
166.3493,67.0054
166.3654,67.0502
166.3800,67.0954
166.3933,67.1411
166.4051,67.1871
166.4156,67.2335
166.4247,67.2800
166.4325,67.3268
166.4427,67.4277
166.4509,67.5269
166.4575,67.6237
166.4627,67.7174
166.4696,67.8932
166.4736,68.0489
166.4766,68.1792
166.4805,68.2789
166.4834,68.3155
166.4872,68.3425
166.4896,68.3522
166.4922,68.3592
166.4952,68.3635
166.4986,68.3649
166.5478,68.2887
166.6020,68.2113
166.6624,68.1317
166.6953,68.0907
166.7303,68.0489
166.7675,68.0061
166.8070,67.9622
166.8936,67.8703
166.9915,67.7726
167.1018,67.6678
167.1699,67.6056
167.2385,67.5440
167.3774,67.4226
167.5177,67.3029
167.6590,67.1846
167.6795,65.9317
167.6853,65.3050
167.6873,64.6783
167.6885,64.3216
167.6913,64.1434
167.6969,63.9652
167.6998,63.9053
167.7036,63.8456
167.7124,63.7265
167.7165,63.6671
167.7199,63.6076
167.7222,63.5480
167.7231,63.4882
167.7248,63.0821
167.7317,62.6759
167.7423,62.2697
167.7551,61.8635
167.7580,61.7840
167.7632,61.7044
167.7707,61.6248
167.7803,61.5453
167.7922,61.4660
167.8063,61.3870
167.8225,61.3085
167.8409,61.2305
167.8407,61.2279
167.8750,61.1054
167.9222,60.9608
167.9836,60.7987
168.0608,60.6237
168.1553,60.4405
168.2686,60.2535
168.4022,60.0675
168.5577,59.8869
168.6441,59.8001
168.7365,59.7164
168.8351,59.6364
168.9401,59.5606
169.0517,59.4896
169.1701,59.4240
169.2955,59.3644
169.4280,59.3113
169.5678,59.2653
169.7152,59.2270
169.8703,59.1970
170.0333,59.1758
170.2045,59.1640
170.3839,59.1622
Z" /> 
<path style="fill:#000000; fill-opacity:1.0000; stroke:none;fill-rule:evenodd;"
d="M 122.8500,111.8908
120.7500,111.8908
120.7500,110.1908
122.5100,110.1908
122.8500,110.5308
Z" /> 
<path style="fill:#000000; fill-opacity:1.0000; stroke:none;fill-rule:evenodd;"
d="M 116.2500,110.1908
116.2500,111.8908
114.1500,111.8908
114.1500,110.1908
Z" /> 
<path style="fill:#000000; fill-opacity:1.0000; stroke:none;fill-rule:evenodd;"
d="M 117.3917,134.5500
117.3249,134.5423
117.2268,134.4990
117.1510,134.4232
117.1077,134.3251
117.1000,134.2583
117.1000,133.2417
117.1077,133.1749
117.1510,133.0768
117.2268,133.0010
117.3249,132.9577
117.3917,132.9500
118.2083,132.9500
118.2751,132.9577
118.3732,133.0010
118.4490,133.0768
118.4923,133.1749
118.5000,133.2417
118.5000,134.2583
118.4923,134.3251
118.4490,134.4232
118.3732,134.4990
118.2751,134.5423
118.2083,134.5500
Z" /> 
<path style="fill:#000000; fill-opacity:1.0000; stroke:none;fill-rule:evenodd;"
d="M 117.3917,132.0500
117.3249,132.0423
117.2268,131.9990
117.1510,131.9232
117.1077,131.8251
117.1000,131.7583
117.1000,130.7417
117.1077,130.6749
117.1510,130.5768
117.2268,130.5010
117.3249,130.4577
117.3917,130.4500
118.2083,130.4500
118.2751,130.4577
118.3732,130.5010
118.4490,130.5768
118.4923,130.6749
118.5000,130.7417
118.5000,131.7583
118.4923,131.8251
118.4490,131.9232
118.3732,131.9990
118.2751,132.0423
118.2083,132.0500
Z" /> 
<path style="fill:#000000; fill-opacity:1.0000; stroke:none;fill-rule:evenodd;"
d="M 120.5917,134.5500
120.5249,134.5423
120.4268,134.4990
120.3510,134.4232
120.3077,134.3251
120.3000,134.2583
120.3000,133.2417
120.3077,133.1749
120.3510,133.0768
120.4268,133.0010
120.5249,132.9577
120.5917,132.9500
121.4083,132.9500
121.4751,132.9577
121.5732,133.0010
121.6490,133.0768
121.6923,133.1749
121.7000,133.2417
121.7000,134.2583
121.6923,134.3251
121.6490,134.4232
121.5732,134.4990
121.4751,134.5423
121.4083,134.5500
Z" /> 
<path style="fill:#000000; fill-opacity:1.0000; stroke:none;fill-rule:evenodd;"
d="M 120.5917,132.0500
120.5249,132.0423
120.4268,131.9990
120.3510,131.9232
120.3077,131.8251
120.3000,131.7583
120.3000,130.7417
120.3077,130.6749
120.3510,130.5768
120.4268,130.5010
120.5249,130.4577
120.5917,130.4500
121.4083,130.4500
121.4751,130.4577
121.5732,130.5010
121.6490,130.5768
121.6923,130.6749
121.7000,130.7417
121.7000,131.7583
121.6923,131.8251
121.6490,131.9232
121.5732,131.9990
121.4751,132.0423
121.4083,132.0500
Z" /> 
<path style="fill:#000000; fill-opacity:1.0000; stroke:none;fill-rule:evenodd;"
d="M 146.1760,84.8333
146.1645,84.9396
146.1148,85.0730
146.0295,85.1869
145.9156,85.2722
145.7822,85.3219
145.6760,85.3333
138.6760,85.3333
138.5697,85.3219
138.4363,85.2722
138.3224,85.1869
138.2371,85.0730
138.1874,84.9396
138.1760,84.8333
138.1760,82.8333
138.1874,82.7271
138.2371,82.5937
138.3224,82.4798
138.4363,82.3945
138.5697,82.3448
138.6760,82.3333
145.6760,82.3333
145.7822,82.3448
145.9156,82.3945
146.0295,82.4798
146.1148,82.5937
146.1645,82.7271
146.1760,82.8333
Z" /> 
<path style="fill:#000000; fill-opacity:1.0000; stroke:none;fill-rule:evenodd;"
d="M 183.3760,82.3333
183.3760,85.3333
175.3760,85.3333
175.3760,82.3333
Z" /> 
<path style="fill:#000000; fill-opacity:1.0000; stroke:none;fill-rule:evenodd;"
d="M 127.5392,86.7617
127.5919,86.7200
127.6918,86.6812
127.7990,86.6812
127.8989,86.7200
127.9516,86.7617
128.6705,87.4806
128.7123,87.5333
128.7510,87.6332
128.7510,87.7404
128.7123,87.8404
128.6705,87.8931
128.0931,88.4705
128.0404,88.5123
127.9404,88.5510
127.8332,88.5510
127.7333,88.5123
127.6806,88.4705
126.9617,87.7516
126.9200,87.6989
126.8812,87.5990
126.8812,87.4918
126.9200,87.3919
126.9617,87.3392
Z" /> 
<path style="fill:#000000; fill-opacity:1.0000; stroke:none;fill-rule:evenodd;"
d="M 129.3069,88.5295
129.3596,88.4877
129.4596,88.4490
129.5668,88.4490
129.6667,88.4877
129.7194,88.5295
130.4383,89.2484
130.4800,89.3011
130.5188,89.4010
130.5188,89.5082
130.4800,89.6081
130.4383,89.6608
129.8608,90.2383
129.8081,90.2800
129.7082,90.3188
129.6010,90.3188
129.5011,90.2800
129.4484,90.2383
128.7295,89.5194
128.6877,89.4667
128.6490,89.3668
128.6490,89.2596
128.6877,89.1596
128.7295,89.1069
Z" /> 
<path style="fill:#000000; fill-opacity:1.0000; stroke:none;fill-rule:evenodd;"
d="M 122.8177,124.1421
120.7190,124.0689
120.7783,122.3699
122.5372,122.4313
122.8651,122.7830
Z" /> 
<path style="fill:#000000; fill-opacity:1.0000; stroke:none;fill-rule:evenodd;"
d="M 116.2810,122.2128
116.2217,123.9118
114.1230,123.8385
114.1823,122.1396
Z" /> 
<path style="fill:#000000; fill-opacity:1.0000; stroke:none;fill-rule:evenodd;"
d="M 122.8770,105.6385
120.7783,105.7118
120.7190,104.0128
122.4779,103.9514
122.8296,104.2793
Z" /> 
<path style="fill:#000000; fill-opacity:1.0000; stroke:none;fill-rule:evenodd;"
d="M 116.2217,104.1699
116.2810,105.8689
114.1823,105.9421
114.1230,104.2432
Z" /> 
<path style="fill:#000000; fill-opacity:1.0000; stroke:none;fill-rule:evenodd;"
d="M 122.8177,118.3421
120.7190,118.2689
120.7783,116.5699
122.5372,116.6313
122.8651,116.9830
Z" /> 
<path style="fill:#000000; fill-opacity:1.0000; stroke:none;fill-rule:evenodd;"
d="M 116.2810,116.4128
116.2217,118.1118
114.1230,118.0385
114.1823,116.3395
Z" /> 
<path style="fill:#000000; fill-opacity:1.0000; stroke:none;fill-rule:evenodd;"
d="M 122.9075,81.3085
120.8155,81.4915
120.6674,79.7980
122.4207,79.6446
122.7890,79.9537
Z" /> 
<path style="fill:#000000; fill-opacity:1.0000; stroke:none;fill-rule:evenodd;"
d="M 116.1845,80.1902
116.3326,81.8837
114.2406,82.0667
114.0925,80.3732
Z" /> 
<path style="fill:#000000; fill-opacity:1.0000; stroke:none;fill-rule:evenodd;"
d="M 126.8392,104.7617
126.8919,104.7200
126.9918,104.6812
127.0990,104.6812
127.1989,104.7200
127.2516,104.7617
127.9705,105.4806
128.0123,105.5333
128.0510,105.6332
128.0510,105.7404
128.0123,105.8404
127.9705,105.8931
127.3931,106.4705
127.3404,106.5123
127.2404,106.5510
127.1332,106.5510
127.0333,106.5123
126.9806,106.4705
126.2617,105.7516
126.2200,105.6989
126.1812,105.5990
126.1812,105.4918
126.2200,105.3919
126.2617,105.3392
Z" /> 
<path style="fill:#000000; fill-opacity:1.0000; stroke:none;fill-rule:evenodd;"
d="M 128.6069,106.5295
128.6596,106.4877
128.7596,106.4490
128.8668,106.4490
128.9667,106.4877
129.0194,106.5295
129.7383,107.2484
129.7800,107.3011
129.8188,107.4010
129.8188,107.5082
129.7800,107.6081
129.7383,107.6608
129.1608,108.2383
129.1081,108.2800
129.0082,108.3188
128.9010,108.3188
128.8011,108.2800
128.7484,108.2383
128.0295,107.5194
127.9877,107.4667
127.9490,107.3668
127.9490,107.2596
127.9877,107.1596
128.0295,107.1069
Z" /> 
<path style="fill:#000000; fill-opacity:1.0000; stroke:none;fill-rule:evenodd;"
d="M 160.0500,72.8000
166.0500,72.8000
166.0500,75.2000
161.2500,75.2000
160.0500,74.0000
Z" /> 
<path style="fill:#000000; fill-opacity:1.0000; stroke:none;fill-rule:evenodd;"
d="M 175.9500,73.0500
175.9690,72.9543
176.0232,72.8732
176.1043,72.8190
176.2000,72.8000
181.7000,72.8000
181.7957,72.8190
181.8768,72.8732
181.9310,72.9543
181.9500,73.0500
181.9500,74.9500
181.9310,75.0457
181.8768,75.1268
181.7957,75.1810
181.7000,75.2000
176.2000,75.2000
176.1043,75.1810
176.0232,75.1268
175.9690,75.0457
175.9500,74.9500
Z" /> 
<path style="fill:#000000; fill-opacity:1.0000; stroke:none;fill-rule:evenodd;"
d="M 122.8987,93.6853
120.8038,93.8318
120.6852,92.1360
122.4409,92.0132
122.8038,92.3286
Z" /> 
<path style="fill:#000000; fill-opacity:1.0000; stroke:none;fill-rule:evenodd;"
d="M 116.1962,92.4499
116.3148,94.1457
114.2199,94.2922
114.1013,92.5964
Z" /> 
<path style="fill:#000000; fill-opacity:1.0000; stroke:none;fill-rule:evenodd;"
d="M 127.5392,80.5617
127.5919,80.5200
127.6918,80.4812
127.7990,80.4812
127.8989,80.5200
127.9516,80.5617
128.6705,81.2806
128.7123,81.3333
128.7510,81.4332
128.7510,81.5404
128.7123,81.6404
128.6705,81.6931
128.0931,82.2705
128.0404,82.3123
127.9404,82.3510
127.8332,82.3510
127.7333,82.3123
127.6806,82.2705
126.9617,81.5516
126.9200,81.4989
126.8812,81.3990
126.8812,81.2918
126.9200,81.1919
126.9617,81.1392
Z" /> 
<path style="fill:#000000; fill-opacity:1.0000; stroke:none;fill-rule:evenodd;"
d="M 129.3069,82.3295
129.3596,82.2877
129.4596,82.2490
129.5668,82.2490
129.6667,82.2877
129.7194,82.3295
130.4383,83.0484
130.4800,83.1011
130.5188,83.2010
130.5188,83.3082
130.4800,83.4081
130.4383,83.4608
129.8608,84.0383
129.8081,84.0800
129.7082,84.1188
129.6010,84.1188
129.5011,84.0800
129.4484,84.0383
128.7295,83.3194
128.6877,83.2667
128.6490,83.1668
128.6490,83.0596
128.6877,82.9596
128.7295,82.9069
Z" /> 
<path style="fill:#000000; fill-opacity:1.0000; stroke:none;fill-rule:evenodd;"
d="M 172.0555,67.6500
172.0555,65.9500
173.8445,65.9500
173.8445,67.6500
Z" /> 
<path style="fill:#000000; fill-opacity:1.0000; stroke:none;fill-rule:evenodd;"
d="M 177.0555,67.6500
177.0555,65.9500
178.8445,65.9500
178.8445,67.6500
Z" /> 
<path style="fill:#000000; fill-opacity:1.0000; stroke:none;fill-rule:evenodd;"
d="M 125.8892,109.9617
125.9419,109.9200
126.0418,109.8812
126.1490,109.8812
126.2489,109.9200
126.3016,109.9617
127.0205,110.6806
127.0623,110.7333
127.1010,110.8332
127.1010,110.9404
127.0623,111.0404
127.0205,111.0931
126.4431,111.6705
126.3904,111.7123
126.2904,111.7510
126.1832,111.7510
126.0833,111.7123
126.0306,111.6705
125.3117,110.9516
125.2700,110.8989
125.2312,110.7990
125.2312,110.6918
125.2700,110.5919
125.3117,110.5392
Z" /> 
<path style="fill:#000000; fill-opacity:1.0000; stroke:none;fill-rule:evenodd;"
d="M 127.6569,111.7295
127.7096,111.6877
127.8096,111.6490
127.9168,111.6490
128.0167,111.6877
128.0694,111.7295
128.7883,112.4484
128.8300,112.5011
128.8688,112.6010
128.8688,112.7082
128.8300,112.8081
128.7883,112.8608
128.2108,113.4383
128.1581,113.4800
128.0582,113.5188
127.9510,113.5188
127.8511,113.4800
127.7984,113.4383
127.0795,112.7194
127.0377,112.6667
126.9990,112.5668
126.9990,112.4596
127.0377,112.3596
127.0795,112.3069
Z" /> 
<path style="fill:#000000; fill-opacity:1.0000; stroke:none;fill-rule:evenodd;"
d="M 133.5500,110.9335
133.5582,110.8629
133.6040,110.7592
133.6842,110.6790
133.7879,110.6332
133.8585,110.6250
134.8415,110.6250
134.9121,110.6332
135.0158,110.6790
135.0960,110.7592
135.1418,110.8629
135.1500,110.9335
135.1500,111.7665
135.1418,111.8371
135.0960,111.9408
135.0158,112.0210
134.9121,112.0668
134.8415,112.0750
133.8585,112.0750
133.7879,112.0668
133.6842,112.0210
133.6040,111.9408
133.5582,111.8371
133.5500,111.7665
Z" /> 
<path style="fill:#000000; fill-opacity:1.0000; stroke:none;fill-rule:evenodd;"
d="M 135.9500,110.9335
135.9582,110.8629
136.0040,110.7592
136.0842,110.6790
136.1879,110.6332
136.2585,110.6250
137.2415,110.6250
137.3121,110.6332
137.4158,110.6790
137.4960,110.7592
137.5418,110.8629
137.5500,110.9335
137.5500,111.7665
137.5418,111.8371
137.4960,111.9408
137.4158,112.0210
137.3121,112.0668
137.2415,112.0750
136.2585,112.0750
136.1879,112.0668
136.0842,112.0210
136.0040,111.9408
135.9582,111.8371
135.9500,111.7665
Z" /> 
<path style="fill:#000000; fill-opacity:1.0000; stroke:none;fill-rule:evenodd;"
d="M 126.8392,92.9617
126.8919,92.9200
126.9918,92.8812
127.0990,92.8812
127.1989,92.9200
127.2516,92.9617
127.9705,93.6806
128.0123,93.7333
128.0510,93.8332
128.0510,93.9404
128.0123,94.0404
127.9705,94.0931
127.3931,94.6705
127.3404,94.7123
127.2404,94.7510
127.1332,94.7510
127.0333,94.7123
126.9806,94.6705
126.2617,93.9516
126.2200,93.8989
126.1812,93.7990
126.1812,93.6918
126.2200,93.5919
126.2617,93.5392
Z" /> 
<path style="fill:#000000; fill-opacity:1.0000; stroke:none;fill-rule:evenodd;"
d="M 128.6069,94.7295
128.6596,94.6877
128.7596,94.6490
128.8668,94.6490
128.9667,94.6877
129.0194,94.7295
129.7383,95.4484
129.7800,95.5011
129.8188,95.6010
129.8188,95.7082
129.7800,95.8081
129.7383,95.8608
129.1608,96.4383
129.1081,96.4800
129.0082,96.5188
128.9010,96.5188
128.8011,96.4800
128.7484,96.4383
128.0295,95.7194
127.9877,95.6667
127.9490,95.5668
127.9490,95.4596
127.9877,95.3596
128.0295,95.3069
Z" /> 
<path style="fill:#000000; fill-opacity:1.0000; stroke:none;fill-rule:evenodd;"
d="M 122.8885,100.1620
120.7914,100.2719
120.7024,98.5743
122.4600,98.4821
122.8173,98.8039
Z" /> 
<path style="fill:#000000; fill-opacity:1.0000; stroke:none;fill-rule:evenodd;"
d="M 116.2086,98.8098
116.2976,100.5074
114.2004,100.6173
114.1115,98.9197
Z" /> 
<path style="fill:#000000; fill-opacity:1.0000; stroke:none;fill-rule:evenodd;"
d="M 133.5500,107.3835
133.5582,107.3129
133.6040,107.2092
133.6842,107.1290
133.7879,107.0832
133.8585,107.0750
134.8415,107.0750
134.9121,107.0832
135.0158,107.1290
135.0960,107.2092
135.1418,107.3129
135.1500,107.3835
135.1500,108.2165
135.1418,108.2871
135.0960,108.3908
135.0158,108.4710
134.9121,108.5168
134.8415,108.5250
133.8585,108.5250
133.7879,108.5168
133.6842,108.4710
133.6040,108.3908
133.5582,108.2871
133.5500,108.2165
Z" /> 
<path style="fill:#000000; fill-opacity:1.0000; stroke:none;fill-rule:evenodd;"
d="M 136.0000,107.3835
136.0082,107.3129
136.0540,107.2092
136.1342,107.1290
136.2379,107.0832
136.3085,107.0750
137.2915,107.0750
137.3621,107.0832
137.4658,107.1290
137.5460,107.2092
137.5918,107.3129
137.6000,107.3835
137.6000,108.2165
137.5918,108.2871
137.5460,108.3908
137.4658,108.4710
137.3621,108.5168
137.2915,108.5250
136.3085,108.5250
136.2379,108.5168
136.1342,108.4710
136.0540,108.3908
136.0082,108.2871
136.0000,108.2165
Z" /> 
<path style="fill:#000000; fill-opacity:1.0000; stroke:none;fill-rule:evenodd;"
d="M 122.9075,87.5085
120.8155,87.6915
120.6674,85.9980
122.4207,85.8446
122.7890,86.1537
Z" /> 
<path style="fill:#000000; fill-opacity:1.0000; stroke:none;fill-rule:evenodd;"
d="M 116.1845,86.3902
116.3326,88.0837
114.2406,88.2667
114.0925,86.5732
Z" /> 
<path style="fill:#000000; fill-opacity:1.0000; stroke:none;fill-rule:evenodd;"
d="M 126.8392,99.2617
126.8919,99.2200
126.9918,99.1812
127.0990,99.1812
127.1989,99.2200
127.2516,99.2617
127.9705,99.9806
128.0123,100.0333
128.0510,100.1332
128.0510,100.2404
128.0123,100.3404
127.9705,100.3931
127.3931,100.9705
127.3404,101.0123
127.2404,101.0510
127.1332,101.0510
127.0333,101.0123
126.9806,100.9705
126.2617,100.2516
126.2200,100.1989
126.1812,100.0990
126.1812,99.9918
126.2200,99.8919
126.2617,99.8392
Z" /> 
<path style="fill:#000000; fill-opacity:1.0000; stroke:none;fill-rule:evenodd;"
d="M 128.6069,101.0295
128.6596,100.9877
128.7596,100.9490
128.8668,100.9490
128.9667,100.9877
129.0194,101.0295
129.7383,101.7484
129.7800,101.8011
129.8188,101.9010
129.8188,102.0082
129.7800,102.1081
129.7383,102.1608
129.1608,102.7383
129.1081,102.7800
129.0082,102.8188
128.9010,102.8188
128.8011,102.7800
128.7484,102.7383
128.0295,102.0194
127.9877,101.9667
127.9490,101.8668
127.9490,101.7596
127.9877,101.6596
128.0295,101.6069
Z" /> 
<path style="fill:#000000; fill-opacity:1.0000; stroke:none;fill-rule:evenodd;"
d="M 141.2000,121.4820
141.2000,119.9580
145.2000,119.9580
145.2000,121.4820
Z" /> 
<path style="fill:#000000; fill-opacity:1.0000; stroke:none;fill-rule:evenodd;"
d="M 141.2000,124.0220
141.2000,122.4980
145.2000,122.4980
145.2000,124.0220
Z" /> 
<path style="fill:#000000; fill-opacity:1.0000; stroke:none;fill-rule:evenodd;"
d="M 141.2000,126.5620
141.2000,125.0380
145.2000,125.0380
145.2000,126.5620
Z" /> 
<path style="fill:#000000; fill-opacity:1.0000; stroke:none;fill-rule:evenodd;"
d="M 141.2000,129.1020
141.2000,127.5780
145.2000,127.5780
145.2000,129.1020
Z" /> 
<path style="fill:#000000; fill-opacity:1.0000; stroke:none;fill-rule:evenodd;"
d="M 141.2000,134.1820
141.2000,132.6580
145.2000,132.6580
145.2000,134.1820
Z" /> 
<path style="fill:#000000; fill-opacity:1.0000; stroke:none;fill-rule:evenodd;"
d="M 141.2000,131.6420
141.2000,130.1180
145.2000,130.1180
145.2000,131.6420
Z" /> 
<path style="fill:#000000; fill-opacity:1.0000; stroke:none;fill-rule:evenodd;"
d="M 124.2000,139.2620
124.2000,137.7380
128.2000,137.7380
128.2000,139.2620
Z" /> 
<path style="fill:#000000; fill-opacity:1.0000; stroke:none;fill-rule:evenodd;"
d="M 141.2000,139.2620
141.2000,137.7380
145.2000,137.7380
145.2000,139.2620
Z" /> 
<path style="fill:#000000; fill-opacity:1.0000; stroke:none;fill-rule:evenodd;"
d="M 124.2000,136.7220
124.2000,135.1980
128.2000,135.1980
128.2000,136.7220
Z" /> 
<path style="fill:#000000; fill-opacity:1.0000; stroke:none;fill-rule:evenodd;"
d="M 124.2000,134.1820
124.2000,132.6580
128.2000,132.6580
128.2000,134.1820
Z" /> 
<path style="fill:#000000; fill-opacity:1.0000; stroke:none;fill-rule:evenodd;"
d="M 124.2000,131.6420
124.2000,130.1180
128.2000,130.1180
128.2000,131.6420
Z" /> 
<path style="fill:#000000; fill-opacity:1.0000; stroke:none;fill-rule:evenodd;"
d="M 124.2000,129.1020
124.2000,127.5780
128.2000,127.5780
128.2000,129.1020
Z" /> 
<path style="fill:#000000; fill-opacity:1.0000; stroke:none;fill-rule:evenodd;"
d="M 124.2000,126.5620
124.2000,125.0380
128.2000,125.0380
128.2000,126.5620
Z" /> 
<path style="fill:#000000; fill-opacity:1.0000; stroke:none;fill-rule:evenodd;"
d="M 124.2000,124.0220
124.2000,122.4980
128.2000,122.4980
128.2000,124.0220
Z" /> 
<path style="fill:#000000; fill-opacity:1.0000; stroke:none;fill-rule:evenodd;"
d="M 124.2000,121.4820
124.2000,119.9580
128.2000,119.9580
128.2000,121.4820
Z" /> 
<path style="fill:#000000; fill-opacity:1.0000; stroke:none;fill-rule:evenodd;"
d="M 141.2000,136.7220
141.2000,135.1980
145.2000,135.1980
145.2000,136.7220
Z" /> 
</g> 
</svg>
